<svg version="1.1" id="Layer_1" xmlns="http://www.w3.org/2000/svg" xmlns:xlink="http://www.w3.org/1999/xlink" x="0px" y="0px" width="350px" height="350px" viewBox="150 220 300 150" enable-background="new 0 0 595.008 595.008" xml:space="preserve">
<g>
	<path fill="#F94062" d="M165.328,396.844c-15.069,0-26.703-11.283-26.703-24.631V180.169c0-14.044,12.32-24.65,26.703-24.65h57.85   c51.354,0,77.022,32.858,77.022,67.092c0,23.953-15.398,38.686-35.947,48.605c21.226,8.555,42.452,23.964,42.452,53.754   c0,40.051-32.173,71.873-84.902,71.873H165.328L165.328,396.844z M225.917,250.001c11.982,0,26.365-8.219,26.365-26.704   c0-13.009-6.166-24.642-23.965-24.642h-41.773v51.346H225.917L225.917,250.001z M186.544,293.816v59.563h38.348   c22.6,0,33.883-11.295,33.883-29.096c0-19.512-13.693-30.467-31.832-30.467H186.544z"/>
	<path fill="#2E0276" d="M432.768,396.014c11.982,0,23.615,9.594,23.615,21.912c0,12.334-10.28,21.563-23.615,21.563h-91.166   c-13.356,0-23.625-9.229-23.625-21.563c0-12.318,11.645-21.912,23.625-21.912H432.768z"/>
</g>
</svg>